Coordinates
version=1
nRows=11
nColumns=40
inDegrees=yes

Units are S.I. units (second, meters, Newtons, ...)
Angles are in degrees.

endheader
time	pelvis_tilt	pelvis_list	pelvis_rotation	pelvis_tx	pelvis_ty	pelvis_tz	hip_flexion_r	hip_adduction_r	hip_rotation_r	knee_angle_r	knee_angle_r_beta	ankle_angle_r	subtalar_angle_r	mtp_angle_r	hip_flexion_l	hip_adduction_l	hip_rotation_l	knee_angle_l	knee_angle_l_beta	ankle_angle_l	subtalar_angle_l	mtp_angle_l	lumbar_extension	lumbar_bending	lumbar_rotation	arm_flex_r	arm_add_r	arm_rot_r	elbow_flex_r	pro_sup_r	wrist_flex_r	wrist_dev_r	arm_flex_l	arm_add_l	arm_rot_l	elbow_flex_l	pro_sup_l	wrist_flex_l	wrist_dev_l
     32.11228571	     -2.78808217	     -5.18746412	      8.04657013	      0.98726404	      0.90208023	      0.54740698	     17.34301294	      6.47820662	    -10.08007306	     34.34550518	     34.34550518	     21.40812333	    -17.30865562	      5.20805645	     31.50806713	    -13.84690989	      7.35371183	     66.35757979	     66.35757979	     13.26613956	    -19.55312553	     22.29360972	    -12.60090698	      4.26733541	      2.58122544	     36.49996030	    -19.50823769	     -8.01762554	     40.97589950	     46.02056694	      0.00000000	      0.00000000	     -6.98932151	     -9.13320290	     11.94031378	     27.99428268	     44.25528067	      0.00000000	      0.00000000
     32.13457143	     -2.74766798	     -4.94742699	      9.12779110	      0.98638817	      0.90282286	      0.54712418	     16.81290850	      6.20078598	    -10.66180591	     33.92975462	     33.92975462	     21.50266615	    -17.63654341	      5.35993898	     32.99087616	    -12.95754562	      7.48924274	     64.47766536	     64.47766536	     13.86912993	    -19.57733147	     22.28792501	    -12.44588629	      4.00429506	      3.46107090	     39.13949913	    -20.58645100	     -8.23758105	     41.99573342	     46.01162178	      0.00000000	      0.00000000	     -8.67867572	     -8.86989766	     12.05529534	     27.50511806	     44.21488758	      0.00000000	      0.00000000
     32.15685714	     -2.61959959	     -4.63787783	     10.24569989	      0.98549816	      0.90452413	      0.54633093	     15.95661499	      5.83628073	    -11.36078226	     33.14388191	     33.14388191	     21.56158484	    -17.66934688	      5.63960962	     33.88741504	    -11.88450686	      7.57554534	     61.57450312	     61.57450312	     14.41029804	    -19.56800468	     22.30460035	    -12.52255663	      3.78861169	      3.21964381	     42.37936305	    -20.55135131	     -8.23966755	     43.86420331	     45.95892555	      0.00000000	      0.00000000	    -10.80795188	     -8.66635563	     12.50466026	     27.19774100	     44.12328320	      0.00000000	      0.00000000
     32.17914286	     -2.76847174	     -4.27217832	     11.34470160	      0.98439775	      0.90648542	      0.54513655	     15.29813498	      5.33811200	    -12.12060219	     32.19359769	     32.19359769	     21.46899957	    -17.63978016	      5.80176368	     34.57392127	    -10.59943978	      7.65861571	     57.73247885	     57.73247885	     14.34498353	    -19.51369650	     21.32916472	    -12.29985511	      3.49033949	      3.11611289	     45.43406933	    -20.71010991	     -7.95519432	     45.54459421	     45.89629792	      0.00000000	      0.00000000	    -12.94934114	     -8.62345978	     13.32440544	     27.83561173	     43.98278987	      0.00000000	      0.00000000
     32.20142857	     -3.15845026	     -3.87289577	     12.35903565	      0.98298182	      0.90861623	      0.54363240	     14.84866636	      4.75895019	    -12.79700767	     31.15690442	     31.15690442	     21.23960285	    -17.61658215	      6.08338928	     35.08585391	     -9.13051363	      7.84260877	     53.22551462	     53.22551462	     14.24758439	    -19.39290512	     21.37520392	    -11.86898010	      3.08406450	      3.72000544	     48.18717990	    -21.60306701	     -8.05826911	     46.62145809	     45.87874268	      0.00000000	      0.00000000	    -14.31869450	     -8.36652094	     13.53490848	     27.65172666	     43.93310969	      0.00000000	      0.00000000
     32.22371429	     -3.22496359	     -3.41265863	     13.29231104	      0.98195088	      0.91152889	      0.54196991	     13.72906184	      4.19101294	    -13.66879359	     29.60840688	     29.60840688	     20.48797004	    -17.31541391	      4.69828195	     34.49083585	     -7.91471541	      7.79090362	     47.57072676	     47.57072676	     11.67707773	    -19.19700302	     15.32755813	    -11.85388250	      2.69866321	      3.65985235	     50.89592269	    -21.96234757	     -6.48451235	     48.78186691	     45.72750277	      0.00000000	      0.00000000	    -16.55286620	     -9.42587239	     20.15120152	     30.06010921	     43.30365198	      0.00000000	      0.00000000
     32.24600000	     -3.54600995	     -3.01742206	     14.14676558	      0.98068008	      0.91407055	      0.54002679	     12.96903477	      3.62702438	    -14.49098088	     28.21758782	     28.21758782	     20.10476700	    -16.83130650	      4.54031347	     33.99453576	     -6.61059408	      8.09061074	     41.88414728	     41.88414728	      9.97739382	    -18.68637158	     12.76090704	    -11.62678365	      2.32139899	      3.51379756	     53.56637351	    -21.86890177	     -6.25076967	     50.91977485	     45.65411345	      0.00000000	      0.00000000	    -18.22053758	     -9.09700710	     20.61610288	     30.51687929	     43.30265261	      0.00000000	      0.00000000
     32.26828571	     -3.88554359	     -2.63531988	     14.85481590	      0.97944389	      0.91639889	      0.53799245	     12.28415543	      3.12066304	    -15.08934989	     26.94733839	     26.94733839	     19.81811543	    -16.50236657	      4.70189396	     33.38920648	     -5.47088975	      8.34678589	     36.39437010	     36.39437010	      9.18396528	    -17.28487139	     12.80211847	    -11.34630955	      1.94495595	      3.96145437	     56.14038462	    -22.27138277	     -6.19841383	     52.12366064	     45.62382583	      0.00000000	      0.00000000	    -19.35289310	     -8.73335705	     20.84690492	     30.48550674	     43.27435725	      0.00000000	      0.00000000
     32.29057143	     -4.03694026	     -2.45289632	     15.51232457	      0.97852155	      0.91844397	      0.53591794	     11.33293532	      2.83841845	    -16.02187546	     25.50698933	     25.50698933	     19.42619574	    -15.68379381	      4.17178415	     32.51835404	     -4.85602006	      8.29423939	     31.06277980	     31.06277980	      7.83682058	    -14.95219528	     10.59754080	    -11.30377254	      1.83066180	      3.79204102	     58.74107087	    -21.97111981	     -5.44843573	     54.35277435	     45.52870154	      0.00000000	      0.00000000	    -20.81800660	     -8.29747001	     21.44027627	     30.97246582	     43.22548745	      0.00000000	      0.00000000
     32.31285714	     -4.26207726	     -2.36092035	     16.01294982	      0.97770042	      0.91979198	      0.53390486	     10.61567843	      2.68715251	    -16.61949320	     24.30397199	     24.30397199	     19.00997978	    -15.16956367	      3.48217355	     31.85400705	     -4.52708973	      7.75667154	     26.41110561	     26.41110561	      7.00335714	    -11.61493867	      9.08420529	    -11.11902985	      1.75143807	      3.97375596	     60.98923958	    -22.01172398	     -4.63105000	     56.31478923	     45.44288319	      0.00000000	      0.00000000	    -22.01233360	     -7.98982600	     22.12679510	     31.57357007	     43.18256507	      0.00000000	      0.00000000
     32.33514286	     -4.48221068	     -2.22685893	     16.41598976	      0.97699388	      0.92072644	      0.53173741	     10.04231302	      2.48150953	    -17.04510593	     23.43381169	     23.43381169	     18.84751728	    -14.83539233	      3.32733643	     31.24195905	     -4.11976320	      7.31101107	     22.49379891	     22.49379891	      6.72052689	     -8.72715591	      9.39405847	    -10.94323641	      1.57997199	      4.21640498	     63.12569292	    -21.91145116	     -4.32033508	     57.69798160	     45.39565758	      0.00000000	      0.00000000	    -22.96327702	     -7.56993975	     22.51467440	     31.65095419	     43.14465929	      0.00000000	      0.00000000
